<?xml version="1.0" encoding="utf-8"?>
<!-- Generator: Adobe Illustrator 27.2.0, SVG Export Plug-In . SVG Version: 6.00 Build 0)  -->
<svg version="1.1" id="_图层_2" xmlns="http://www.w3.org/2000/svg" xmlns:xlink="http://www.w3.org/1999/xlink" x="0px" y="0px"
	 viewBox="0 0 160.7 160.7" style="enable-background:new 0 0 160.7 160.7;" xml:space="preserve">
<style type="text/css">
	.st0{fill:#F86D3F;}
	.st1{fill:#FFFFFF;}
</style>
<g id="_图层_1-2">
	<g>
		<path class="st0" d="M48.2,0h64.3c26.6,0,48.2,21.6,48.2,48.2v64.3c0,26.6-21.6,48.2-48.2,48.2H48.2C21.6,160.7,0,139.1,0,112.5
			V48.2C0,21.6,21.6,0,48.2,0z"/>
		<path class="st1" d="M40.7,89.6H25.6c-2.1,0-3.5-0.5-4.3-1.4c-0.8-0.9-1.2-2.3-1.2-4.2l0,0v-9.6c0-2.5,0.4-4.2,1.2-5
			c0.8-0.8,2.2-1.2,4.3-1.2h40.9V27c0.1-1.3,0.6-2.5,1.6-3.6c1-1.1,2.4-1.6,4.1-1.6h16.9c1.6,0,2.8,0.5,3.8,1.6
			c1,1.1,1.4,2.3,1.4,3.6l0,0v41.3h40.5c2.3,0,3.8,0.4,4.6,1.2c0.8,0.8,1.2,2.5,1.2,5l0,0v9.6c0,1.9-0.4,3.3-1.2,4.2
			c-0.8,0.9-2.3,1.4-4.6,1.4h-14.8l17.3,38.4c0.7,1.4,0.6,2.6-0.4,3.6c-1,1-2.6,1.5-4.9,1.4h-13.9c-2.1,0.1-3.5-0.2-4.2-1
			c-0.7-0.8-1.7-2.2-2.9-4.4l0,0l-16.8-37v43c0,1.4-0.5,2.6-1.4,3.7c-1,1.1-2.2,1.6-3.8,1.6H72.2c-1.8,0-3.1-0.6-4.1-1.6
			c-1-1.1-1.6-2.3-1.6-3.7l0,0V90.4l-16.9,37.2c-1.2,2.2-2.2,3.7-2.9,4.4s-2.1,1.1-4.2,1H28.6c-2.3,0.1-3.9-0.4-4.8-1.4
			c-1-1-1.1-2.2-0.4-3.6l0,0L40.7,89.6L40.7,89.6z M36.2,59.5L26,38.5c-0.7-1.4-0.6-2.6,0.4-3.7c1-1,2.6-1.5,4.8-1.4h13.9
			c2.1-0.1,3.5,0.2,4.2,1c0.7,0.7,1.7,2.2,2.9,4.5l0,0l10.4,21c0.6,2.3,0.4,3.7-0.6,4.4c-1,0.7-2.5,0.9-4.6,0.8H42.5
			c-2.1,0-3.4-0.4-4-1.1C37.9,63.2,37.2,61.8,36.2,59.5L36.2,59.5L36.2,59.5z M134.7,38.5L134.7,38.5l-10.2,21
			c-1,2.3-1.7,3.8-2.3,4.5c-0.6,0.7-1.9,1.1-4,1.1h-14.8c-2.1,0.1-3.7-0.2-4.7-0.8c-1-0.7-1.2-2.1-0.6-4.4l0,0l10.4-21
			c1.2-2.3,2.2-3.8,2.9-4.5c0.7-0.8,2.1-1.1,4.2-1h13.9c2.3-0.1,3.9,0.4,4.8,1.4C135.3,35.9,135.4,37.1,134.7,38.5L134.7,38.5z"/>
	</g>
</g>
</svg>
