<svg data-v-2cb57da0="" version="1.0" xmlns="http://www.w3.org/2000/svg" xmlns:xlink="http://www.w3.org/1999/xlink" viewBox="0 0 340.000000 250.000000" preserveAspectRatio="xMidYMid meet" color-interpolation-filters="sRGB" style="margin: auto;"><rect data-v-2cb57da0="" x="0" y="0" fill-opacity="1" class="background"></rect> <!----> <g data-v-2cb57da0="" fill="#ff5857" class="icon-text-wrapper icon-svg-group iconsvg" transform="translate(120,75)"><g fill="#333" class="iconsvg-imagesvg icon_container" transform="translate(0,0)" mask="url(#0e29b7f4-e57b-4151-bf5b-53be703a1e80)"><rect fill="#ff5857" fill-opacity="0" stroke-width="2" x="0" y="0" width="100" height="100" class="image-rect"></rect> <svg viewBox="0 0 60 60" x="0" y="0" width="100" height="100" class="image-svg-svg bn" style="overflow: visible;"><g hollow-target="iconBnFill" mask="url(#21c38867-c89a-4bd9-9323-0ef2ec7047d2)"><g><svg viewBox="0 0 100 100" xmlns="http://www.w3.org/2000/svg" style="overflow: visible;" width="60" height="60" x="0" y="0" filtersec="colorsf6002851720" filter="url(#6Jkf6_dy-_SowPj23VAnb)"><g transform="scale(1, 1) skewX(0)"><rect x="537" y="3121" width="100" height="100" rx="30" transform="translate(-537 -3121)" fill="#333" fill-rule="evenodd"></rect></g><defs><filter id="6Jkf6_dy-_SowPj23VAnb"><feColorMatrix type="matrix" values="0 0 0 0 0.19921875  0 0 0 0 0.19921875  0 0 0 0 0.19921875  0 0 0 1 0"></feColorMatrix></filter></defs></svg></g> <g filter="url(#colors3823956662)"><svg xmlns="http://www.w3.org/2000/svg" xmlns:xlink="http://www.w3.org/1999/xlink" viewBox="0 0 64.6875 62.9296875" width="45" height="45" x="7.5" y="7.5" class="image-svg-letter"><path transform="translate(-3.65625 58.4296875)" d="M14.70-22.01L6.61-22.01Q4.92-22.01 4.29-22.75Q3.66-23.48 3.66-25.03L3.66-25.03L3.66-30.16Q3.66-32.20 4.29-32.84Q4.92-33.47 6.61-33.47L6.61-33.47L28.55-33.47L28.55-55.62Q28.62-56.67 29.43-57.55Q30.23-58.43 31.64-58.43L31.64-58.43L40.71-58.43Q41.98-58.43 42.75-57.55Q43.52-56.67 43.52-55.62L43.52-55.62L43.52-33.47L65.25-33.47Q67.08-33.47 67.71-32.84Q68.34-32.20 68.34-30.16L68.34-30.16L68.34-25.03Q68.34-23.48 67.71-22.75Q67.08-22.01 65.25-22.01L65.25-22.01L57.30-22.01L66.59-1.41Q67.15-0.28 66.38 0.53Q65.60 1.34 63.77 1.27L63.77 1.27L56.32 1.27Q54.63 1.34 54.07 0.74Q53.51 0.14 52.52-1.62L52.52-1.62L43.52-21.45L43.52 1.62Q43.52 2.74 42.75 3.62Q41.98 4.50 40.71 4.50L40.71 4.50L31.64 4.50Q30.23 4.50 29.43 3.62Q28.62 2.74 28.55 1.62L28.55 1.62L28.55-21.59L19.48-1.62Q18.49 0.14 17.93 0.74Q17.37 1.34 15.68 1.27L15.68 1.27L8.23 1.27Q6.40 1.34 5.63 0.53Q4.85-0.28 5.41-1.41L5.41-1.41L14.70-22.01ZM12.30-38.18L6.82-49.43Q6.26-50.55 7.03-51.40Q7.80-52.24 9.63-52.17L9.63-52.17L17.09-52.17Q18.77-52.24 19.34-51.64Q19.90-51.05 20.88-49.22L20.88-49.22L26.44-37.97Q26.93-36.14 26.12-35.61Q25.31-35.09 23.63-35.16L23.63-35.16L15.68-35.16Q13.99-35.16 13.54-35.75Q13.08-36.35 12.30-38.18L12.30-38.18ZM65.18-49.43L65.18-49.43L59.70-38.18Q58.92-36.35 58.46-35.75Q58.01-35.16 56.32-35.16L56.32-35.16L48.38-35.16Q46.69-35.09 45.88-35.61Q45.07-36.14 45.56-37.97L45.56-37.97L51.12-49.22Q52.10-51.05 52.66-51.64Q53.23-52.24 54.91-52.17L54.91-52.17L62.37-52.17Q64.20-52.24 64.97-51.40Q65.74-50.55 65.18-49.43Z"></path></svg></g></g><mask id="21c38867-c89a-4bd9-9323-0ef2ec7047d2"><g fill="white"><svg viewBox="0 0 100 100" xmlns="http://www.w3.org/2000/svg" style="overflow: visible;" width="60" height="60" x="0" y="0" filtersec="colorsf6002851720"><g transform="scale(1, 1) skewX(0)"><rect x="537" y="3121" width="100" height="100" rx="30" transform="translate(-537 -3121)" fill-rule="evenodd"></rect></g><defs></defs></svg></g> <g fill="black"><svg xmlns="http://www.w3.org/2000/svg" xmlns:xlink="http://www.w3.org/1999/xlink" viewBox="0 0 64.6875 62.9296875" width="45" height="45" x="7.5" y="7.5" class="image-svg-letter"><path transform="translate(-3.65625 58.4296875)" d="M14.70-22.01L6.61-22.01Q4.92-22.01 4.29-22.75Q3.66-23.48 3.66-25.03L3.66-25.03L3.66-30.16Q3.66-32.20 4.29-32.84Q4.92-33.47 6.61-33.47L6.61-33.47L28.55-33.47L28.55-55.62Q28.62-56.67 29.43-57.55Q30.23-58.43 31.64-58.43L31.64-58.43L40.71-58.43Q41.98-58.43 42.75-57.55Q43.52-56.67 43.52-55.62L43.52-55.62L43.52-33.47L65.25-33.47Q67.08-33.47 67.71-32.84Q68.34-32.20 68.34-30.16L68.34-30.16L68.34-25.03Q68.34-23.48 67.71-22.75Q67.08-22.01 65.25-22.01L65.25-22.01L57.30-22.01L66.59-1.41Q67.15-0.28 66.38 0.53Q65.60 1.34 63.77 1.27L63.77 1.27L56.32 1.27Q54.63 1.34 54.07 0.74Q53.51 0.14 52.52-1.62L52.52-1.62L43.52-21.45L43.52 1.62Q43.52 2.74 42.75 3.62Q41.98 4.50 40.71 4.50L40.71 4.50L31.64 4.50Q30.23 4.50 29.43 3.62Q28.62 2.74 28.55 1.62L28.55 1.62L28.55-21.59L19.48-1.62Q18.49 0.14 17.93 0.74Q17.37 1.34 15.68 1.27L15.68 1.27L8.23 1.27Q6.40 1.34 5.63 0.53Q4.85-0.28 5.41-1.41L5.41-1.41L14.70-22.01ZM12.30-38.18L6.82-49.43Q6.26-50.55 7.03-51.40Q7.80-52.24 9.63-52.17L9.63-52.17L17.09-52.17Q18.77-52.24 19.34-51.64Q19.90-51.05 20.88-49.22L20.88-49.22L26.44-37.97Q26.93-36.14 26.12-35.61Q25.31-35.09 23.63-35.16L23.63-35.16L15.68-35.16Q13.99-35.16 13.54-35.75Q13.08-36.35 12.30-38.18L12.30-38.18ZM65.18-49.43L65.18-49.43L59.70-38.18Q58.92-36.35 58.46-35.75Q58.01-35.16 56.32-35.16L56.32-35.16L48.38-35.16Q46.69-35.09 45.88-35.61Q45.07-36.14 45.56-37.97L45.56-37.97L51.12-49.22Q52.10-51.05 52.66-51.64Q53.23-52.24 54.91-52.17L54.91-52.17L62.37-52.17Q64.20-52.24 64.97-51.40Q65.74-50.55 65.18-49.43Z"></path></svg></g></mask></svg> <defs><filter id="colors3823956662"><feColorMatrix type="matrix" values="0 0 0 0 0.19921875  0 0 0 0 0.19921875  0 0 0 0 0.19921875  0 0 0 1 0" class="icon-fecolormatrix"></feColorMatrix></filter> <filter id="colorsf6002851720"><feColorMatrix type="matrix" values="0 0 0 0 0.99609375  0 0 0 0 0.99609375  0 0 0 0 0.99609375  0 0 0 1 0" class="icon-fecolormatrix"></feColorMatrix></filter> <filter id="colorsb8657981273"><feColorMatrix type="matrix" values="0 0 0 0 0  0 0 0 0 0  0 0 0 0 0  0 0 0 1 0" class="icon-fecolormatrix"></feColorMatrix></filter></defs><rect v-gra="id" width="112" height="112" transform="translate(-6, -6)" style="pointer-events:none;" fill="url(#2FL0aql1dgVRSL_V0AuZA)"></rect></g> <g transform="translate(50,107)"><g data-gra="path-name" fill-rule="" class="tp-name iconsvg-namesvg" fill="url(#89fe4e77-6731-403d-9c55-a4bfc3bcd2c3)"><g transform="scale(1)"><g><path d="" transform="translate(0, 0)"></path></g> <!----> <!----> <!----> <!----> <!----> <!----> <!----></g></g> <!----></g></g><defs v-gra="od"><linearGradient x1="0" y1="1" x2="0" y2="0" id="89fe4e77-6731-403d-9c55-a4bfc3bcd2c3"><stop offset="0%" stop-color="#ff5857"></stop><stop offset="100%" stop-color="#f09819"></stop></linearGradient><filter id="42443b3f1de60f6b6fd3b6a9844b4764" filterUnits="userSpaceOnUse"><feColorMatrix type="matrix" values="0 0 0 0 0.99609375  0 0 0 0 0.99609375  0 0 0 0 0.99609375  0 0 0 1 0"></feColorMatrix></filter></defs><defs v-gra="id"><filter id="b4913176-b49a-476e-b116-807686381f79" filterUnits="userSpaceOnUse"><feColorMatrix type="matrix" values="0 0 0 0 0.99609375  0 0 0 0 0.99609375  0 0 0 0 0.99609375  0 0 0 1 0"></feColorMatrix></filter><linearGradient x1="0" y1="1" x2="0" y2="0" id="2FL0aql1dgVRSL_V0AuZA"><stop offset="0%" stop-color="#ff5857"></stop><stop offset="100%" stop-color="#f09819"></stop></linearGradient><filter id="42443b3f1de60f6b6fd3b6a9844b4764" filterUnits="userSpaceOnUse"><feColorMatrix type="matrix" values="0 0 0 0 0.99609375  0 0 0 0 0.99609375  0 0 0 0 0.99609375  0 0 0 1 0"></feColorMatrix></filter></defs><mask v-gra="im" id="0e29b7f4-e57b-4151-bf5b-53be703a1e80"><g fill="#333" class="iconsvg-imagesvg icon_container" filter="url(#b4913176-b49a-476e-b116-807686381f79)"><rect fill="#ff5857" fill-opacity="0" stroke-width="2" x="0" y="0" width="100" height="100" class="image-rect"></rect> <svg viewBox="0 0 60 60" x="0" y="0" width="100" height="100" class="image-svg-svg bn" style="overflow: visible;"><g hollow-target="iconBnFill" mask="url(#21c38867-c89a-4bd9-9323-0ef2ec7047d2)"><g><svg viewBox="0 0 100 100" xmlns="http://www.w3.org/2000/svg" style="overflow: visible;" width="60" height="60" x="0" y="0" filtersec="colorsf6002851720"><g transform="scale(1, 1) skewX(0)"><rect x="537" y="3121" width="100" height="100" rx="30" transform="translate(-537 -3121)" fill="#333" fill-rule="evenodd"></rect></g><defs><filter id="6Jkf6_dy-_SowPj23VAnb"><feColorMatrix type="matrix" values="0 0 0 0 0.19921875  0 0 0 0 0.19921875  0 0 0 0 0.19921875  0 0 0 1 0"></feColorMatrix></filter></defs></svg></g> <g><svg xmlns="http://www.w3.org/2000/svg" xmlns:xlink="http://www.w3.org/1999/xlink" viewBox="0 0 64.6875 62.9296875" width="45" height="45" x="7.5" y="7.5" class="image-svg-letter"><path transform="translate(-3.65625 58.4296875)" d="M14.70-22.01L6.61-22.01Q4.92-22.01 4.29-22.75Q3.66-23.48 3.66-25.03L3.66-25.03L3.66-30.16Q3.66-32.20 4.29-32.84Q4.92-33.47 6.61-33.47L6.61-33.47L28.55-33.47L28.55-55.62Q28.62-56.67 29.43-57.55Q30.23-58.43 31.64-58.43L31.64-58.43L40.71-58.43Q41.98-58.43 42.75-57.55Q43.52-56.67 43.52-55.62L43.52-55.62L43.52-33.47L65.25-33.47Q67.08-33.47 67.71-32.84Q68.34-32.20 68.34-30.16L68.34-30.16L68.34-25.03Q68.34-23.48 67.71-22.75Q67.08-22.01 65.25-22.01L65.25-22.01L57.30-22.01L66.59-1.41Q67.15-0.28 66.38 0.53Q65.60 1.34 63.77 1.27L63.77 1.27L56.32 1.27Q54.63 1.34 54.07 0.74Q53.51 0.14 52.52-1.62L52.52-1.62L43.52-21.45L43.52 1.62Q43.52 2.74 42.75 3.62Q41.98 4.50 40.71 4.50L40.71 4.50L31.64 4.50Q30.23 4.50 29.43 3.62Q28.62 2.74 28.55 1.62L28.55 1.62L28.55-21.59L19.48-1.62Q18.49 0.14 17.93 0.74Q17.37 1.34 15.68 1.27L15.68 1.27L8.23 1.27Q6.40 1.34 5.63 0.53Q4.85-0.28 5.41-1.41L5.41-1.41L14.70-22.01ZM12.30-38.18L6.82-49.43Q6.26-50.55 7.03-51.40Q7.80-52.24 9.63-52.17L9.63-52.17L17.09-52.17Q18.77-52.24 19.34-51.64Q19.90-51.05 20.88-49.22L20.88-49.22L26.44-37.97Q26.93-36.14 26.12-35.61Q25.31-35.09 23.63-35.16L23.63-35.16L15.68-35.16Q13.99-35.16 13.54-35.75Q13.08-36.35 12.30-38.18L12.30-38.18ZM65.18-49.43L65.18-49.43L59.70-38.18Q58.92-36.35 58.46-35.75Q58.01-35.16 56.32-35.16L56.32-35.16L48.38-35.16Q46.69-35.09 45.88-35.61Q45.07-36.14 45.56-37.97L45.56-37.97L51.12-49.22Q52.10-51.05 52.66-51.64Q53.23-52.24 54.91-52.17L54.91-52.17L62.37-52.17Q64.20-52.24 64.97-51.40Q65.74-50.55 65.18-49.43Z"></path></svg></g></g><mask id="21c38867-c89a-4bd9-9323-0ef2ec7047d2"><g fill="white"><svg viewBox="0 0 100 100" xmlns="http://www.w3.org/2000/svg" style="overflow: visible;" width="60" height="60" x="0" y="0" filtersec="colorsf6002851720"><g transform="scale(1, 1) skewX(0)"><rect x="537" y="3121" width="100" height="100" rx="30" transform="translate(-537 -3121)" fill-rule="evenodd"></rect></g><defs></defs></svg></g> <g fill="black"><svg xmlns="http://www.w3.org/2000/svg" xmlns:xlink="http://www.w3.org/1999/xlink" viewBox="0 0 64.6875 62.9296875" width="45" height="45" x="7.5" y="7.5" class="image-svg-letter"><path transform="translate(-3.65625 58.4296875)" d="M14.70-22.01L6.61-22.01Q4.92-22.01 4.29-22.75Q3.66-23.48 3.66-25.03L3.66-25.03L3.66-30.16Q3.66-32.20 4.29-32.84Q4.92-33.47 6.61-33.47L6.61-33.47L28.55-33.47L28.55-55.62Q28.62-56.67 29.43-57.55Q30.23-58.43 31.64-58.43L31.64-58.43L40.71-58.43Q41.98-58.43 42.75-57.55Q43.52-56.67 43.52-55.62L43.52-55.62L43.52-33.47L65.25-33.47Q67.08-33.47 67.71-32.84Q68.34-32.20 68.34-30.16L68.34-30.16L68.34-25.03Q68.34-23.48 67.71-22.75Q67.08-22.01 65.25-22.01L65.25-22.01L57.30-22.01L66.59-1.41Q67.15-0.28 66.38 0.53Q65.60 1.34 63.77 1.27L63.77 1.27L56.32 1.27Q54.63 1.34 54.07 0.74Q53.51 0.14 52.52-1.62L52.52-1.62L43.52-21.45L43.52 1.62Q43.52 2.74 42.75 3.62Q41.98 4.50 40.71 4.50L40.71 4.50L31.64 4.50Q30.23 4.50 29.43 3.62Q28.62 2.74 28.55 1.62L28.55 1.62L28.55-21.59L19.48-1.62Q18.49 0.14 17.93 0.74Q17.37 1.34 15.68 1.27L15.68 1.27L8.23 1.27Q6.40 1.34 5.63 0.53Q4.85-0.28 5.41-1.41L5.41-1.41L14.70-22.01ZM12.30-38.18L6.82-49.43Q6.26-50.55 7.03-51.40Q7.80-52.24 9.63-52.17L9.63-52.17L17.09-52.17Q18.77-52.24 19.34-51.64Q19.90-51.05 20.88-49.22L20.88-49.22L26.44-37.97Q26.93-36.14 26.12-35.61Q25.31-35.09 23.63-35.16L23.63-35.16L15.68-35.16Q13.99-35.16 13.54-35.75Q13.08-36.35 12.30-38.18L12.30-38.18ZM65.18-49.43L65.18-49.43L59.70-38.18Q58.92-36.35 58.46-35.75Q58.01-35.16 56.32-35.16L56.32-35.16L48.38-35.16Q46.69-35.09 45.88-35.61Q45.07-36.14 45.56-37.97L45.56-37.97L51.12-49.22Q52.10-51.05 52.66-51.64Q53.23-52.24 54.91-52.17L54.91-52.17L62.37-52.17Q64.20-52.24 64.97-51.40Q65.74-50.55 65.18-49.43Z"></path></svg></g></mask></svg> <defs><filter id="colors3823956662"><feColorMatrix type="matrix" values="0 0 0 0 0.19921875  0 0 0 0 0.19921875  0 0 0 0 0.19921875  0 0 0 1 0" class="icon-fecolormatrix"></feColorMatrix></filter> <filter id="colorsf6002851720"><feColorMatrix type="matrix" values="0 0 0 0 0.99609375  0 0 0 0 0.99609375  0 0 0 0 0.99609375  0 0 0 1 0" class="icon-fecolormatrix"></feColorMatrix></filter> <filter id="colorsb8657981273"><feColorMatrix type="matrix" values="0 0 0 0 0  0 0 0 0 0  0 0 0 0 0  0 0 0 1 0" class="icon-fecolormatrix"></feColorMatrix></filter></defs></g></mask></svg>