<?xml version="1.0" encoding="UTF-8"?>
<svg id="_图层_2" data-name="图层 2" xmlns="http://www.w3.org/2000/svg" viewBox="0 0 160.71 160.71">
  <defs>
    <style>
      .cls-1 {
        fill: #fff;
      }

      .cls-2 {
        fill: #f86d3f;
      }
    </style>
  </defs>
  <g id="_图层_1-2" data-name="图层 1">
    <g>
      <rect class="cls-2" width="160.71" height="160.71" rx="48.21" ry="48.21"/>
      <path class="cls-1" d="m40.67,89.59h-15.07c-2.1,0-3.54-.46-4.32-1.38-.78-.91-1.17-2.32-1.17-4.25h0v-9.56c0-2.53.39-4.2,1.17-4.99.78-.78,2.22-1.17,4.32-1.17h40.88V26.96c.09-1.3.63-2.5,1.64-3.6.99-1.09,2.37-1.64,4.12-1.64h16.9c1.58,0,2.84.55,3.8,1.64.96,1.09,1.43,2.29,1.43,3.6h0v41.27h40.49c2.27,0,3.8.39,4.58,1.17.78.8,1.17,2.46,1.17,4.99h0v9.56c0,1.93-.39,3.34-1.17,4.25-.78.92-2.31,1.38-4.58,1.38h-14.81l17.31,38.39c.7,1.4.57,2.61-.39,3.61-.97,1.01-2.59,1.47-4.86,1.38h-13.88c-2.1.09-3.5-.24-4.19-.99-.7-.75-1.66-2.21-2.89-4.4h0l-16.77-36.95v42.99c0,1.39-.48,2.63-1.43,3.73-.96,1.09-2.22,1.64-3.8,1.64h-16.9c-1.75,0-3.12-.55-4.12-1.64-1.01-1.09-1.55-2.34-1.64-3.73h0v-43.25l-16.9,37.21c-1.23,2.19-2.19,3.65-2.89,4.4-.7.75-2.09,1.07-4.19.99h-13.88c-2.27.09-3.89-.37-4.84-1.38-.97-1.01-1.11-2.21-.41-3.61h0l17.31-38.39Zm-4.47-30.13l-10.21-20.96c-.7-1.39-.57-2.61.39-3.67.96-1.04,2.57-1.52,4.84-1.43h13.9c2.09-.09,3.48.24,4.19.99.7.73,1.65,2.24,2.87,4.51h0l10.36,20.96c.61,2.27.41,3.74-.6,4.4-1.01.65-2.55.93-4.64.84h-14.81c-2.1,0-3.43-.37-3.99-1.1-.57-.75-1.34-2.25-2.31-4.53h0Zm98.53-20.96h0l-10.21,20.96c-.97,2.27-1.74,3.78-2.31,4.53-.56.73-1.89,1.1-3.99,1.1h-14.8c-2.1.09-3.65-.19-4.66-.84-1.01-.66-1.2-2.12-.6-4.4h0l10.36-20.96c1.22-2.27,2.17-3.78,2.87-4.51.71-.75,2.11-1.07,4.19-.99h13.9c2.27-.09,3.89.39,4.84,1.43.96,1.06,1.09,2.28.39,3.67Z"/>
    </g>
  </g>
</svg>